<?xml version="1.0" encoding="UTF-8" standalone="no"?>
<!-- Created with Inkscape (http://www.inkscape.org/) -->

<svg
   xmlns:dc="http://purl.org/dc/elements/1.1/"
   xmlns:cc="http://creativecommons.org/ns#"
   xmlns:rdf="http://www.w3.org/1999/02/22-rdf-syntax-ns#"
   xmlns:svg="http://www.w3.org/2000/svg"
   xmlns="http://www.w3.org/2000/svg"
   xmlns:sodipodi="http://sodipodi.sourceforge.net/DTD/sodipodi-0.dtd"
   xmlns:inkscape="http://www.inkscape.org/namespaces/inkscape"
   width="122"
   height="122"
   id="svg2"
   version="1.1"
   inkscape:version="0.92.1 r15371"
   inkscape:export-filename="/Users/Jon/Documents/Development/Websites/Jon Dutch/v2.0/img/hob_geek.png"
   inkscape:export-xdpi="90"
   inkscape:export-ydpi="90"
   sodipodi:docname="me-web.svg">
  <defs
     id="defs4" />
  <sodipodi:namedview
     id="base"
     pagecolor="#ffffff"
     bordercolor="#666666"
     borderopacity="1.0"
     inkscape:pageopacity="0.0"
     inkscape:pageshadow="2"
     inkscape:zoom="11.2"
     inkscape:cx="64.874225"
     inkscape:cy="48.201143"
     inkscape:document-units="px"
     inkscape:current-layer="layer1"
     showgrid="false"
     units="cm"
     inkscape:window-width="3332"
     inkscape:window-height="2022"
     inkscape:window-x="0"
     inkscape:window-y="100"
     inkscape:window-maximized="1" />
  <metadata
     id="metadata7">
    <rdf:RDF>
      <cc:Work
         rdf:about="">
        <dc:format>image/svg+xml</dc:format>
        <dc:type
           rdf:resource="http://purl.org/dc/dcmitype/StillImage" />
        <dc:title />
      </cc:Work>
    </rdf:RDF>
  </metadata>
  <g
     inkscape:label="Layer 1"
     inkscape:groupmode="layer"
     id="layer1"
     transform="translate(0,-1000.5196)">
    <circle
       inkscape:export-ydpi="96"
       inkscape:export-xdpi="96"
       style="fill:#ffffff;stroke-width:0.27700421"
       r="61"
       cy="1061.5197"
       cx="60.999996"
       id="circle93" />
    <path
       style="fill:#878787;stroke:#878787;stroke-width:0.16350083;stroke-linecap:butt;stroke-linejoin:miter;stroke-miterlimit:4;stroke-dasharray:none;stroke-opacity:1;fill-opacity:1"
       d="M 57.697266 4.1484375 C 54.462756 4.1656573 51.045059 4.9663281 47.423828 6.8183594 C 34.902904 14.696459 24.392953 25.035228 28.09375 43.861328 L 27.789062 45.431641 C 24.314792 45.396241 24.45584 49.526322 25.380859 54.044922 C 25.884698 57.499822 24.469508 60.955256 26.986328 64.410156 C 29.290838 70.767456 31.913161 76.971503 34.796875 83.095703 C 40.214105 91.805803 45.318509 101.96153 50.927734 109.29883 C 76.691376 132.99409 85.180004 102.19469 88.072266 80.597656 C 88.089234 80.553738 88.106074 80.504728 88.123047 80.460938 C 91.199232 74.950337 93.480465 70.317464 91.648438 61.351562 C 90.874246 75.424663 83.921451 73.468922 81.736328 82.044922 C 81.40037 86.091622 80.376386 85.304438 79.080078 79.335938 C 77.748963 74.027838 73.199796 74.944872 71.824219 69.576172 C 71.502795 68.737872 70.776257 68.294287 69.21875 68.554688 L 68.554688 71.314453 C 67.522434 72.251753 66.469754 72.059534 65.4375 71.927734 C 65.213819 70.301934 65.593491 69.119925 65.898438 67.890625 L 65.232422 65.439453 C 65.214147 65.370959 65.163323 65.367777 65.097656 65.390625 C 64.442988 64.050018 61.434511 60.942531 63.314453 58.939453 C 65.03304 57.108253 60.96913 48.505172 63.009766 44.951172 C 62.663963 45.238214 62.389584 45.59407 62.162109 45.986328 C 62.388283 45.496901 62.657568 45.083092 62.992188 44.878906 L 63.261719 44.191406 L 63.482422 43.751953 C 63.427432 43.435653 63.749734 43.120987 63.261719 42.804688 L 62.458984 42.511719 C 62.271575 42.372894 62.145006 42.335492 62.060547 42.359375 C 61.807171 42.431023 61.9356 43.049353 61.949219 43.095703 L 62.09375 44.263672 C 62.477453 45.328572 61.722102 45.253756 61.072266 45.285156 C 60.92518 47.948656 60.769964 50.613453 58.152344 53.751953 C 57.117891 56.528653 54.214782 60.310784 56.109375 62.146484 C 56.707187 62.718184 57.212805 63.289528 57.423828 63.861328 C 57.893772 65.567028 59.398311 66.812344 61 67.402344 C 60.04453 66.285581 59.436052 65.116472 59.164062 63.898438 C 59.463936 64.922331 60.071001 66.112975 61.197266 67.53125 C 58.737816 62.553038 58.879232 62.2944 62.953125 66.152344 C 62.956957 66.177608 62.973847 66.215775 62.970703 66.234375 C 62.951448 66.34831 62.971359 66.434503 63.019531 66.496094 C 62.848391 67.15051 63.053091 67.561604 62.677734 67.6875 C 58.68558 69.0262 54.221009 77.725462 52.613281 81.789062 L 48.474609 81.482422 C 45.99566 78.539922 42.442086 76.903478 40.503906 73.767578 C 36.919137 67.967478 35.882257 61.820447 34.373047 54.248047 C 36.413464 54.201047 39.213138 54.701822 39.789062 54.044922 C 43.654207 55.013522 48.431078 55.551422 56.394531 54.607422 L 56.957031 53.890625 C 52.725065 54.782525 46.735795 54.579722 41.78125 54.044922 C 39.331945 53.705722 37.82248 52.206234 37.4375 49.802734 C 36.591808 47.219034 36.108668 44.929509 37.847656 43.162109 C 36.972376 43.990209 36.005137 44.746222 36.466797 47.044922 C 35.500996 46.860322 34.57127 46.1794 33.605469 46.6875 C 33.085853 47.58091 32.609455 48.490003 32.171875 49.402344 C 32.553896 48.479036 33.004905 47.546469 33.554688 46.599609 L 34.576172 46.453125 L 36.332031 46.878906 C 35.899599 44.341106 37.670866 42.077484 40.78125 42.146484 C 43.52955 41.746684 46.365654 41.554719 49.320312 41.636719 C 48.548784 41.044457 51.561959 40.955978 53 40.658203 C 51.362923 41.225373 48.48455 41.164412 49.494141 41.724609 C 52.012307 41.551709 54.666515 41.604691 57.390625 41.775391 L 56.255859 41.363281 C 55.501606 41.047281 54.58144 40.768944 53.210938 40.589844 C 53.187359 40.599475 53.157075 40.605927 53.132812 40.615234 C 47.729552 40.727815 42.264101 40.531547 36.986328 41.271484 C 36.423645 41.475384 35.959774 41.380166 35.671875 40.759766 C 35.37504 40.809166 35.699302 38.674622 36.197266 37.482422 C 36.551646 36.634022 35.366091 36.158791 35.671875 34.775391 C 36.151106 30.841591 39.692594 28.000941 43.992188 25.431641 C 40.742955 27.034241 37.915624 29.057928 35.492188 31.486328 C 36.942779 27.680328 39.9781 24.618653 44.869141 22.876953 C 42.063215 23.726853 39.199338 25.095694 36.255859 27.183594 C 35.306732 25.546194 40.621263 22.509931 45.818359 19.957031 C 40.852239 21.657631 36.88094 24.600609 34.357422 26.599609 C 38.214333 22.762709 40.746349 20.985812 43.408203 19.007812 C 40.537204 20.060512 37.667871 22.629356 34.796875 24.847656 C 38.195695 20.831956 41.847235 17.042841 46.474609 14.119141 C 42.727718 15.978741 38.981272 19.080169 35.234375 22.292969 L 34.212891 22.074219 C 38.438467 17.119519 43.222224 12.905147 50.027344 8.9980469 C 61.282976 4.2726469 67.349978 6.901433 76.619141 12.585938 C 71.043267 7.8687205 64.813186 4.1105538 57.697266 4.1484375 z M 41.292969 29.519531 C 38.703309 29.805031 36.987486 33.033772 35.736328 34.638672 C 35.635202 35.186972 35.87462 36.209172 36.306641 36.888672 C 36.430297 37.083172 35.385807 40.193409 35.732422 40.724609 C 35.885297 40.959009 36.332024 41.407844 36.849609 41.214844 C 36.896339 40.361644 37.369035 39.078334 37.990234 38.365234 C 38.377722 37.416734 38.40912 36.657294 38.517578 36.746094 C 35.916425 36.527194 38.687799 31.782231 41.292969 29.519531 z M 76.402344 31.148438 C 75.330262 31.14312 74.148228 31.313175 72.824219 31.710938 L 72.617188 32.382812 C 78.1383 31.268012 82.070523 33.941444 85.830078 37.027344 L 86.707031 37.027344 C 83.624529 34.503231 81.048031 31.171482 76.402344 31.148438 z M 49.119141 31.748047 C 43.320465 32.023381 40.858025 36.571897 38.65625 36.716797 L 38.140625 38.214844 C 42.96549 34.552044 49.891925 31.521975 53.210938 33.671875 L 51.816406 31.917969 C 50.842884 31.757581 49.947523 31.708713 49.119141 31.748047 z M 76 40.140625 L 74.394531 40.285156 L 71.291016 40.6875 L 70.890625 41.380859 C 70.541384 41.495259 69.603262 41.592078 69.285156 42.330078 L 69.539062 43.058594 C 69.632762 43.308494 69.244523 43.472978 69.759766 43.642578 C 70.841653 42.388778 73.091769 42.304394 74.869141 41.746094 C 73.72559 41.855494 72.481213 41.765119 71.4375 42.074219 L 71.291016 41.636719 C 72.892266 41.036919 74.423733 41.004025 76 40.140625 z M 83.554688 40.25 L 84.867188 41.271484 L 86.339844 41.314453 C 88.546144 41.633953 91.035877 42.551091 89.685547 45.212891 C 90.003604 47.641591 89.301488 49.496666 88.298828 51.197266 C 89.3718 49.856666 89.808309 49.548291 90.050781 45.650391 L 91.324219 45.388672 L 91.25 40.716797 C 89.478756 40.137397 86.131855 40.2909 83.554688 40.25 z M 82.917969 41.097656 C 82.569538 41.100728 82.272453 41.177294 82.09375 41.417969 L 81.728516 42.585938 C 81.363556 42.755937 80.999726 42.824319 80.634766 42.511719 L 80.197266 43.242188 C 80.970624 43.825387 81.586799 44.532506 81.875 45.503906 L 82.677734 45.650391 C 83.159727 45.657391 83.101668 45.339306 83.117188 45.066406 C 83.360489 44.772906 83.602395 45.004256 83.845703 45.285156 C 84.712833 45.274156 85.531214 45.247925 86.109375 45.140625 C 86.687438 44.896725 86.742917 44.286519 86.912109 42.949219 C 87.530082 42.383419 87.211236 48.211881 88.005859 50.613281 C 88.974801 48.684981 89.157028 47.054156 89.613281 45.285156 C 91.142087 41.194656 86.197745 41.590684 84.794922 41.271484 C 84.224321 41.290734 83.498687 41.092537 82.917969 41.097656 z M 48.695312 44.115234 C 47.84048 44.166109 46.749763 44.343219 46.181641 44.410156 C 45.308005 44.800156 44.25019 44.867425 44.066406 46.453125 L 44.285156 49.738281 C 44.716847 47.488981 42.568973 44.378138 49.904297 44.335938 C 49.890759 44.208011 49.715982 44.141673 49.443359 44.115234 C 49.238892 44.095405 48.98026 44.098276 48.695312 44.115234 z M 76.117188 44.238281 C 75.845294 44.182983 75.48705 44.384406 75.068359 44.769531 C 74.044251 45.894231 74.631679 46.509194 74.835938 47.246094 C 75.377869 48.222294 75.920958 47.997584 76.462891 48.021484 C 76.152276 47.307484 76.604233 46.592906 76.720703 45.878906 C 76.132807 45.520306 76.283744 44.940512 76.359375 44.382812 C 76.288563 44.304913 76.207818 44.256714 76.117188 44.238281 z M 68.773438 45.066406 C 68.280646 45.382506 67.944007 46.010116 67.277344 45.978516 C 68.604259 49.030316 69.921552 52.162322 71.4375 53.607422 L 71.619141 53.679688 C 70.037012 51.230787 67.611015 49.344906 68.773438 45.066406 z M 49.082031 45.542969 C 49.082031 45.542969 46.825956 46.076972 46.964844 47.763672 C 47.104701 49.462072 49.289063 49.671875 49.289062 49.671875 C 50.333244 49.241775 50.238274 49.281769 49.701172 47.917969 C 49.697021 47.895207 49.702639 47.881408 49.699219 47.859375 C 49.723576 47.854543 49.749734 47.842233 49.773438 47.84375 C 49.651792 47.45255 49.817322 47.215419 49.923828 46.824219 C 49.921078 46.935632 49.860817 46.977481 49.785156 46.998047 C 49.793635 46.97991 49.795457 46.954885 49.804688 46.9375 L 50.166016 46.007812 C 49.936671 45.758713 49.774125 45.461469 49.082031 45.542969 z M 77.908203 45.826172 C 77.928363 46.154572 78.089923 46.553822 77.185547 46.419922 C 76.992137 47.013422 76.885255 47.607672 77.236328 48.201172 C 77.649231 48.422372 78.061706 48.259391 78.474609 48.150391 C 78.592412 47.823491 78.476023 47.494769 78.964844 47.167969 C 78.786425 46.633469 79.213246 45.797372 77.908203 45.826172 z M 88.306641 51.273438 C 87.986053 51.501036 85.255682 54.258331 79.482422 53.957031 L 80.177734 54.240234 C 83.209626 54.133434 86.789038 53.403936 88.306641 51.273438 z M 61.677734 62.917969 C 62.174114 62.959937 63.473107 63.982442 65.056641 65.412109 C 64.991087 65.444261 64.889641 65.531924 64.796875 65.607422 C 64.830271 65.481854 64.832169 65.349541 64.794922 65.212891 C 64.738271 65.005091 61.619061 62.659303 61.511719 63.095703 C 61.478019 63.232733 61.525807 63.432478 61.621094 63.666016 C 61.906953 64.36663 62.623457 65.373045 62.875 65.916016 C 62.213274 64.878408 61.816651 64.152136 61.621094 63.666016 C 61.409363 63.139689 61.435583 62.897495 61.677734 62.917969 z M 69.867188 63.589844 C 69.801811 63.563719 69.699586 63.603653 69.539062 63.751953 C 68.995284 64.371553 68.623121 64.763541 68.371094 64.994141 C 68.206708 65.237441 68.080006 65.479356 68.298828 65.722656 L 69.248047 66.234375 C 69.401672 65.633775 69.537837 65.014685 69.832031 64.554688 C 69.933904 64.364587 69.973774 64.113372 69.978516 63.826172 C 69.962591 63.709372 69.93256 63.615969 69.867188 63.589844 z M 32.240234 65.15625 C 32.877405 66.741155 33.557735 68.191936 34.066406 69.576172 L 40.197266 82.298828 C 40.438578 83.08432 40.712885 83.851273 40.986328 84.617188 C 40.652118 83.798057 40.326163 82.984705 40.050781 82.21875 C 37.337891 76.123953 34.116394 70.608826 32.240234 65.15625 z M 65.335938 76.015625 C 66.000529 75.970625 66.409026 76.311931 67.072266 76.269531 C 69.346368 75.983131 70.488819 76.184209 71.416016 76.474609 C 72.200406 76.804709 72.779793 76.789375 73.255859 77.546875 C 74.57693 79.648675 75.683802 82.062547 76.882812 82.810547 C 77.243747 85.599247 77.53934 88.340128 77.087891 90.423828 C 72.921387 101.74843 67.401436 103.66312 56.802734 92.416016 C 57.232034 89.553316 57.452309 86.794972 56.34375 84.701172 C 58.148789 79.865672 61.06484 78.530088 63.802734 76.679688 C 64.459521 76.201288 64.937179 76.042525 65.335938 76.015625 z M 63.814453 78.496094 C 63.615608 78.495828 63.451999 78.504237 63.326172 78.523438 C 60.580333 78.834838 59.858034 79.786841 60.486328 81.369141 C 60.585718 81.619541 60.081271 81.756203 60.076172 82.033203 C 60.626706 82.621803 61.176026 82.887306 61.726562 83.066406 C 62.229144 81.555906 60.924835 79.980169 66.474609 78.730469 C 65.323496 78.581819 64.410988 78.496891 63.814453 78.496094 z M 87.863281 81.152344 C 85.988751 86.422355 84.242509 91.698556 81.359375 96.519531 C 84.087989 91.72766 85.977845 86.089948 87.863281 81.152344 z M 65.744141 82.4375 C 65.251248 82.7632 64.755611 83.049672 64.357422 84.701172 C 65.574048 85.003472 66.061507 85.828009 66.621094 86.599609 C 67.688557 87.453909 68.591716 87.164175 69.466797 86.671875 C 69.847556 86.045575 70.393206 86.118303 70.416016 83.970703 C 70.274905 83.149803 69.776798 82.5783 68.664062 82.4375 C 67.333261 83.1527 66.621205 82.6298 65.744141 82.4375 z M 63.583984 85.957031 C 59.68893 88.025631 59.93512 90.051872 65.966797 93.701172 C 66.204426 93.844972 66.425868 94.687284 66.681641 94.833984 C 66.543686 93.805184 66.673205 92.722841 67.222656 91.556641 C 64.362741 91.226541 61.080377 89.421831 63.583984 85.957031 z M 73.880859 89.234375 C 72.556302 91.498975 70.027609 91.060984 70.037109 92.458984 C 70.582632 92.114884 71.214393 92.416366 72.074219 92.072266 C 74.038641 90.747666 73.278707 90.180675 73.880859 89.234375 z M 81.082031 96.990234 C 81.027889 97.07788 80.980732 97.168536 80.925781 97.255859 C 78.563606 101.38157 75.883363 104.4451 72.847656 106.28125 C 75.781165 104.42417 78.147834 101.65857 79.949219 98.804688 C 80.345476 98.220471 80.717406 97.60973 81.082031 96.990234 z "
       transform="translate(0,1000.5196)"
       id="path95" />
  </g>
</svg>
